<svg width="80" height="80" viewBox="0 0 80 80" fill="none" xmlns="http://www.w3.org/2000/svg">
<rect width="80" height="80" rx="20" fill="#013D23"/>
<rect x="0.5" y="0.5" width="79" height="79" rx="19.5" stroke="black" stroke-opacity="0.1"/>
<path d="M58.75 17.3438V18.125H59.6973H60.6543L56.9727 21.8066L53.2812 25.498L49.9805 22.1973L46.6797 18.9062H46.25H45.8203L41.3477 23.3691L36.875 27.8418L34.3555 25.3223L31.8359 22.8125H31.4062H30.9668L25.4004 28.3789L19.834 33.9453L20.4492 34.5508L21.0547 35.166L26.2305 29.9902L31.4062 24.8145L33.9258 27.334L36.4453 29.8438H36.875H37.3047L41.7773 25.3809L46.25 20.9082L49.5508 24.209L52.8516 27.5H53.2812H53.7109L57.793 23.4277L61.875 19.3457V20.3027V21.25H62.6562H63.4375V19.1016C63.4375 17.0801 63.4277 16.9434 63.2422 16.7578C63.0566 16.5723 62.9199 16.5625 60.8984 16.5625H58.75V17.3438Z" fill="white"/>
<path d="M51.9141 30.0391C51.7188 30.2344 51.7188 30.3613 51.7188 36.4844C51.7188 42.6074 51.7188 42.7344 51.9141 42.9297C52.0996 43.1152 52.2363 43.125 54.0625 43.125C55.8887 43.125 56.0254 43.1152 56.2109 42.9297C56.4062 42.7344 56.4062 42.6074 56.4062 36.4844C56.4062 30.3613 56.4062 30.2344 56.2109 30.0391C56.0254 29.8535 55.8887 29.8438 54.0625 29.8438C52.2363 29.8438 52.0996 29.8535 51.9141 30.0391ZM54.8438 36.4844V41.5625H54.0625H53.2812V36.4844V31.4062H54.0625H54.8438V36.4844Z" fill="white"/>
<path d="M37.8516 31.6016C37.6562 31.7969 37.6562 31.9238 37.6562 37.2656C37.6562 42.6074 37.6562 42.7344 37.8516 42.9297C38.0371 43.1152 38.1738 43.125 40 43.125C41.8262 43.125 41.9629 43.1152 42.1484 42.9297C42.3438 42.7344 42.3438 42.6074 42.3438 37.2656C42.3438 31.9238 42.3438 31.7969 42.1484 31.6016C41.9629 31.416 41.8262 31.4062 40 31.4062C38.1738 31.4062 38.0371 31.416 37.8516 31.6016ZM40.7812 37.2656V41.5625H40H39.2188V37.2656V32.9688H40H40.7812V37.2656Z" fill="white"/>
<path d="M44.8828 33.9453C44.6973 34.1309 44.6875 34.2676 44.6875 38.4375C44.6875 42.6074 44.6973 42.7441 44.8828 42.9297C45.0684 43.1152 45.2051 43.125 47.0312 43.125C48.8574 43.125 48.9941 43.1152 49.1797 42.9297C49.3652 42.7441 49.375 42.6074 49.375 38.4375C49.375 34.2676 49.3652 34.1309 49.1797 33.9453C48.9941 33.7598 48.8574 33.75 47.0312 33.75C45.2051 33.75 45.0684 33.7598 44.8828 33.9453ZM47.8125 38.4375V41.5625H47.0312H46.25V38.4375V35.3125H47.0312H47.8125V38.4375Z" fill="white"/>
<path d="M30.8203 37.0703C30.6348 37.2559 30.625 37.3926 30.625 40C30.625 42.6074 30.6348 42.7441 30.8203 42.9297C31.0059 43.1152 31.1426 43.125 32.9688 43.125C34.7949 43.125 34.9316 43.1152 35.1172 42.9297C35.3027 42.7441 35.3125 42.6074 35.3125 40C35.3125 37.3926 35.3027 37.2559 35.1172 37.0703C34.9316 36.8848 34.7949 36.875 32.9688 36.875C31.1426 36.875 31.0059 36.8848 30.8203 37.0703ZM33.75 40V41.5625H32.9688H32.1875V40V38.4375H32.9688H33.75V40Z" fill="white"/>
<path d="M59.2871 43.5156C58.9551 43.5644 57.9004 44.0527 56.0644 44.9804L53.3301 46.3671L52.8125 45.8593C51.8359 44.9218 50.332 44.4433 49.0625 44.6581C48.584 44.746 47.627 45.1855 44.7363 46.6308C42.6953 47.6562 40.8887 48.5155 40.7129 48.5448C40.1855 48.6425 39.6387 48.4179 37.0801 47.0605C34.4238 45.6445 33.5547 45.2734 32.2852 45.039C31.2402 44.8339 29.3652 44.8339 28.4082 45.039C27.3926 45.2441 26.2012 45.6933 25.4004 46.1523C25.0391 46.3671 24.7266 46.5331 24.707 46.5136C24.6875 46.4941 24.5605 45.957 24.4238 45.3124C24.2187 44.3749 24.1309 44.1113 23.9258 43.9257C23.7891 43.8085 23.5937 43.7109 23.4863 43.7109C23.3398 43.7109 18.4473 44.7363 17.168 45.0292C16.7969 45.1171 16.5625 45.4296 16.5625 45.8398C16.5625 46.2597 20.0293 62.8808 20.1758 63.1445C20.2832 63.3495 20.5957 63.4667 20.957 63.457C21.3379 63.4472 27.1387 62.1777 27.3633 62.0605C27.7539 61.8554 27.8125 61.5429 27.6367 60.6445C27.5488 60.1855 27.5 59.7948 27.5293 59.7655C27.5977 59.6972 28.6426 59.453 29.6484 59.2773C30.4883 59.1405 30.5176 59.1405 35.9082 59.7363C43.0762 60.5273 43.8281 60.5077 45.8984 59.4628C46.4355 59.1894 60.0977 50.1073 62.334 48.5351C63.1738 47.9394 63.4766 47.3241 63.418 46.3085C63.3887 45.664 63.3496 45.5273 63.0176 45.0488C62.2168 43.8866 60.7422 43.2812 59.2871 43.5156ZM60.8984 45.371C61.709 45.7812 62.0312 46.5722 61.5625 47.0019C61.1133 47.4023 45.918 57.539 45.1855 57.9198C44.2383 58.4179 43.291 58.6523 42.1875 58.6523C41.709 58.6523 39.3457 58.4374 36.9238 58.1738C34.5117 57.9003 32.0801 57.6366 31.5234 57.578C30.4297 57.4609 29.6777 57.5292 28.1055 57.8808C27.6074 57.998 27.168 58.0566 27.1387 58.0273C27.1094 57.998 26.6309 55.83 26.0742 53.2128L25.0684 48.4472L25.3809 48.1835C25.8984 47.7343 27.5879 46.953 28.4766 46.7382C29.6191 46.4745 31.1328 46.4745 32.3145 46.748C33.2129 46.9628 33.5937 47.1386 37.5586 49.2089C40.332 50.6542 40.5859 50.6347 44.248 48.7695C49.4531 46.1034 49.0234 46.2988 49.7559 46.2988C50.6055 46.2988 51.3867 46.6601 51.8652 47.2948C52.2656 47.8124 52.3047 48.1835 51.9922 48.4667C51.8164 48.623 45.0879 52.6562 42.9297 53.8964C41.7578 54.5702 39.9902 54.8827 38.6914 54.6581C38.3203 54.5898 36.2891 54.121 34.1699 53.6132C32.041 53.1054 30.293 52.705 30.2734 52.7148C30.2441 52.7538 29.8437 54.2968 29.873 54.3066C29.8828 54.3163 31.8066 54.7753 34.1406 55.3417L38.3887 56.3573L39.7559 56.3476C40.9473 56.3378 41.2402 56.3085 41.9824 56.0839C42.4512 55.9374 43.1152 55.6835 43.4473 55.5175C44.1211 55.1757 52.2168 50.3905 52.8613 49.9413C53.3594 49.6093 53.75 48.9843 53.8281 48.3886L53.8867 47.9589L56.543 46.6113C57.998 45.8691 59.3262 45.2245 59.4824 45.1757C59.8633 45.0585 60.4394 45.1366 60.8984 45.371ZM24.3457 53.1054C25.2148 57.2558 25.9082 60.664 25.8887 60.6933C25.8398 60.7323 22.1875 61.5331 21.748 61.6015L21.5137 61.6308L19.9219 54.0624C19.0527 49.9023 18.3398 46.4941 18.3496 46.4843C18.4082 46.455 22.4902 45.5859 22.6172 45.5761C22.7344 45.5663 23.0859 47.1191 24.3457 53.1054Z" fill="white"/>
<path d="M20.6836 47.4609C20.4004 47.5293 20.1465 47.6171 20.1074 47.6464C20.0391 47.7148 20.2539 48.8964 20.3711 49.082C20.4395 49.1894 20.5664 49.1894 21.0742 49.0918C22.1094 48.8964 22.0313 48.9941 21.8457 48.125C21.6699 47.2656 21.6113 47.2363 20.6836 47.4609Z" fill="white"/>
</svg>
