<svg width="80" height="80" viewBox="0 0 80 80" fill="none" xmlns="http://www.w3.org/2000/svg">
<rect width="80" height="80" rx="20" fill="#013D23"/>
<rect x="0.5" y="0.5" width="79" height="79" rx="19.5" stroke="black" stroke-opacity="0.1"/>
<g clip-path="url(#clip0_92_317)">
<path d="M27.5977 24.3359C21.0156 29.4727 15.4883 33.8086 15.3223 33.9746C15.0391 34.2383 15 34.3457 15 34.7656V35.2539L16.9824 37.2266C19.1016 39.3359 19.209 39.4141 19.9023 39.1699L20.2734 39.043V51.0449V63.0469H17.8906H15.5176L15.2539 63.3008C14.8926 63.6719 14.8926 64.375 15.2539 64.7461L15.5176 65H40H64.4824L64.7461 64.7461C65.1074 64.375 65.1074 63.6719 64.7461 63.3008L64.4824 63.0469H62.1094H59.7266V58.2715V53.5059L59.4727 53.2422C59.1016 52.8809 58.3984 52.8809 58.0273 53.2422L57.7734 53.5059V58.2715V63.0469H42.3437H26.9141V58.2227V53.4082L26.6602 53.1445C26.2891 52.7832 25.5859 52.7832 25.2148 53.1445L24.9609 53.4082V58.2227V63.0469H23.5937H22.2266L22.2363 50.2246V37.4121L31.0742 30.5273C35.9277 26.7383 39.9512 23.6426 40 23.6426C40.0488 23.6426 44.0723 26.7383 48.9258 30.5273L57.7637 37.4121V42.2559L57.7734 47.0996L58.0273 47.3633C58.3984 47.7246 59.1016 47.7246 59.4727 47.3633L59.7266 47.0996V43.0762V39.043L60.0977 39.1699C60.791 39.4141 60.8984 39.3359 63.0273 37.2266L65 35.2539V34.7559C65 34.1406 65.0781 34.2188 61.4551 31.4062L58.75 29.3066V24.2188V19.1309L58.4961 18.8672L58.2324 18.6133H54.9414H51.6504L51.3965 18.8672L51.1328 19.1211L51.1133 21.2207L51.084 23.3105L45.7617 19.1504C40.5469 15.0879 40.4297 15 40 15C39.5703 15 39.4238 15.1074 27.5977 24.3359ZM51.1426 25.9863C57.1777 30.7031 62.1875 34.6191 62.2656 34.6875C62.3926 34.8047 62.2852 34.9512 61.4355 35.8008C60.8984 36.3379 60.4297 36.7773 60.3809 36.7773C60.3418 36.7773 55.918 33.3594 50.5664 29.1797C45.2148 25 40.7227 21.5039 40.5859 21.416C40.2832 21.2012 39.7168 21.2012 39.4141 21.416C39.2773 21.5039 34.7852 25 29.4336 29.1797C24.082 33.3594 19.668 36.7773 19.6191 36.7773C19.5703 36.7773 19.1016 36.3379 18.5645 35.791L17.5879 34.8145L17.9297 34.541C20.6152 32.3633 39.9805 17.3535 40.0586 17.3828C40.1172 17.4023 45.1074 21.2793 51.1426 25.9863ZM56.7969 24.1309C56.7969 26.0938 56.7773 27.6953 56.748 27.6953C56.7187 27.6953 55.9082 27.0801 54.9414 26.3184L53.1836 24.9512V22.7539V20.5664H54.9902H56.7969V24.1309Z" fill="white"/>
<path d="M29.9023 36.543L29.6484 36.8066V46.6406V56.4746L29.9023 56.7383L30.166 56.9922H40H49.834L50.0977 56.7383L50.3516 56.4746V46.6406V36.8066L50.0977 36.543L49.834 36.2891H40H30.166L29.9023 36.543ZM39.0234 41.9531V45.6641H35.3125H31.6016V41.9531V38.2422H35.3125H39.0234V41.9531ZM48.3984 41.9531V45.6641H44.6875H40.9766V41.9531V38.2422H44.6875H48.3984V41.9531ZM39.0234 51.3281V55.0391H35.3125H31.6016V51.3281V47.6172H35.3125H39.0234V51.3281ZM48.3984 51.3281V55.0391H44.6875H40.9766V51.3281V47.6172H44.6875H48.3984V51.3281Z" fill="white"/>
<path d="M25.4883 49.0723C25.1562 49.2188 24.9609 49.5801 24.9609 50.0391C24.9609 50.3809 25.0195 50.5176 25.2441 50.752C25.8887 51.3965 26.9141 50.9473 26.9141 50.0196C26.9141 49.4336 26.6211 49.0821 26.084 49.0332C25.8691 49.0039 25.5957 49.0235 25.4883 49.0723Z" fill="white"/>
<path d="M58.0273 49.8242C57.8223 50.0293 57.7734 50.1758 57.7734 50.5469C57.7734 50.918 57.8223 51.0645 58.0273 51.2695C58.2324 51.4746 58.3789 51.5234 58.75 51.5234C59.1211 51.5234 59.2676 51.4746 59.4727 51.2695C59.6777 51.0645 59.7266 50.918 59.7266 50.5469C59.7266 50.1758 59.6777 50.0293 59.4727 49.8242C59.2676 49.6191 59.1211 49.5703 58.75 49.5703C58.3789 49.5703 58.2324 49.6191 58.0273 49.8242Z" fill="white"/>
</g>
<defs>
<clipPath id="clip0_92_317">
<rect width="50" height="50" fill="white" transform="translate(15 15)"/>
</clipPath>
</defs>
</svg>
