<svg width="80" height="80" viewBox="0 0 80 80" fill="none" xmlns="http://www.w3.org/2000/svg">
<rect width="80" height="80" rx="20" fill="#013D23"/>
<rect x="0.5" y="0.5" width="79" height="79" rx="19.5" stroke="black" stroke-opacity="0.1"/>
<g clip-path="url(#clip0_92_326)">
<path d="M38.7793 15.5078C34.8828 18.0664 32.207 21.748 31.084 26.084C30.7324 27.4512 30.625 28.0957 30.5273 29.6191C30.4785 30.3418 30.4199 30.957 30.4004 30.9766C30.3809 31.0059 30.0586 30.9766 29.6875 30.918C27.3926 30.5859 24.5996 31.0254 22.4316 32.0508C19.7949 33.291 17.6855 35.3613 16.3672 37.9785C15.5957 39.502 15.5957 40.0879 16.3477 40.4492C16.6602 40.5957 16.748 40.5957 17.0996 40.4785C17.4609 40.3516 17.5293 40.2734 18.0273 39.2676C18.7109 37.9004 19.3262 37.0215 20.2637 36.0938C21.6406 34.7363 23.4375 33.7012 25.3027 33.2129C26.5918 32.8711 28.4277 32.7832 29.6777 32.998C30.1562 33.0859 30.5664 33.1738 30.5859 33.1934C30.6152 33.2227 30.7422 33.7598 30.8691 34.4043C31.3867 36.9531 32.4414 39.3066 34.0332 41.4648C35.0391 42.8418 37.1191 44.8242 38.3691 45.6152L38.8086 45.8984L38.5742 46.7578C37.7734 49.7656 35.5469 52.3926 32.6465 53.7793C31.7578 54.1992 30.3809 54.6191 29.5898 54.707L29.0625 54.7754V52.9297V51.0938L31.416 48.7207L33.7793 46.3574L33.7207 45.8887C33.6523 45.2637 33.3301 44.9805 32.7051 44.9805H32.2461L30.6641 46.5625L29.0723 48.1348L29.043 44.4043L29.0137 40.6641L28.6914 40.3809C28.252 39.9805 27.6953 39.9805 27.2949 40.3809L27.0117 40.6641V42.3535V44.043L25.9473 42.998C24.9121 41.9727 24.8828 41.9531 24.4434 41.9531C23.7695 41.9531 23.4473 42.2656 23.4473 42.9199V43.418L25.2344 45.1953L27.0117 46.9824V50.8691V54.7461H26.6797C26.1426 54.7461 24.5215 54.2969 23.5937 53.8867C21.123 52.793 19.2187 50.9082 17.9785 48.3301C17.4414 47.2168 16.9824 46.9043 16.3379 47.2363C15.6445 47.5879 15.6152 48.1738 16.2207 49.4531C16.875 50.8301 17.6562 51.9434 18.7598 53.0371C20.7422 55.0293 23.3691 56.377 25.8984 56.709C26.377 56.7676 26.8262 56.8359 26.8945 56.8555C26.9824 56.8848 27.0117 57.5879 27.0117 59.9707V63.0469H21.2598H15.5176L15.2539 63.3008C14.8926 63.6719 14.8926 64.375 15.2539 64.7461L15.5176 65H40H64.4824L64.7461 64.7461C65.1074 64.375 65.1074 63.6719 64.7461 63.3008L64.4824 63.0469H58.4473H52.4023V60.0098C52.4023 57.1582 52.4121 56.9727 52.5781 57.0215C54.375 57.6172 54.3359 57.6074 56.0156 57.6172C57.4121 57.627 57.7344 57.5977 58.3887 57.4023C61.4551 56.5234 63.6719 54.3652 64.6582 51.3281C65.0195 50.2148 65.1074 48.1738 64.8535 46.9238C64.4043 44.6777 63.0078 42.5488 61.1719 41.3281L60.459 40.8496L60.4492 39.5215C60.4394 38.4961 60.3906 38.0176 60.2246 37.4121C59.4043 34.3359 57.0605 32.041 53.9844 31.2891C52.9297 31.0352 51.2207 31.0156 50.2246 31.25C49.8535 31.3379 49.5508 31.4062 49.541 31.4062C49.5215 31.4062 49.5019 30.8691 49.4922 30.2148C49.3848 24.2285 46.2012 18.6426 41.0645 15.4102C40.1367 14.8242 39.8047 14.8438 38.7793 15.5078ZM40.8789 17.793C43.5547 19.8047 45.4687 22.3828 46.543 25.4004C47.1973 27.2656 47.4316 28.6914 47.4316 30.8203V32.334L47.0605 32.627C44.873 34.3457 43.7305 36.4453 43.5547 39.0625C43.5254 39.5508 43.5352 40.2051 43.5937 40.5078L43.6816 41.0742L42.6465 42.0801C42.0801 42.627 41.4648 43.1836 41.2988 43.3105L40.9766 43.5254V37.9395V32.3438L42.6367 30.6738C44.248 29.0527 44.2969 28.9844 44.2969 28.6035C44.2969 28.125 43.9551 27.6465 43.5547 27.5684C43.0664 27.4805 42.7051 27.6855 41.8359 28.5449L40.9766 29.4043V27.1484V24.8926L40.7227 24.6289C40.5176 24.4238 40.3711 24.375 40 24.375C39.6289 24.375 39.4824 24.4238 39.2773 24.6289L39.0234 24.8926V29.4434V33.9941L37.7246 32.6953C36.2988 31.2695 36.0352 31.1328 35.4297 31.4453C35.0391 31.6406 34.9219 31.875 34.9219 32.3926C34.9219 32.8027 34.9414 32.832 36.9727 34.873L39.0234 36.9336V40.2246V43.5254L38.7305 43.3203C38.2031 42.9395 36.7676 41.5332 36.2012 40.8301C34.2969 38.4863 33.1152 35.8105 32.6758 32.8418C32.5391 31.8945 32.5293 29.541 32.6758 28.5742C33.1641 25.166 34.7754 21.9141 37.168 19.4922C38.125 18.5352 39.7363 17.2461 40 17.2461C40.0781 17.2461 40.4785 17.4902 40.8789 17.793ZM53.623 33.3203C53.9453 33.4082 54.541 33.6523 54.9512 33.8574C57.4414 35.1562 58.8184 37.9395 58.3203 40.6836C58.1152 41.8262 58.2227 42.041 59.2676 42.6074C61.084 43.5742 62.3828 45.2539 62.8125 47.1973C63.0566 48.3008 62.9687 49.9707 62.6074 50.9375C61.582 53.75 58.9648 55.625 56.0742 55.625C54.9805 55.625 54.1504 55.4395 53.1641 54.9707L52.4023 54.6191V51.7773V48.9453L54.4531 46.8848L56.5039 44.8242V44.3848C56.5039 43.8965 56.2891 43.5742 55.8398 43.4082C55.332 43.2129 55.0391 43.3887 53.7012 44.7168L52.4023 45.9961V44.9023C52.4023 43.6816 52.2754 43.2812 51.8555 43.125C51.2988 42.9102 50.6738 43.1055 50.4687 43.5645C50.3906 43.7402 50.3516 44.6875 50.3516 46.7676V49.7168L49.2578 48.623C48.6523 48.0273 48.0566 47.4902 47.9394 47.4316C47.5586 47.2363 47.1582 47.3047 46.8164 47.6074C46.543 47.8516 46.4941 47.959 46.4941 48.3398V48.7891L48.4277 50.7129L50.3516 52.6465V53.6426V54.6387L49.9414 54.8828C49.0527 55.4004 48.3398 55.5664 47.0801 55.5762C45.6445 55.5762 44.8145 55.3418 43.75 54.6289C42.5293 53.8086 41.709 52.7051 41.2793 51.2891C41.0254 50.4688 41.0059 49.043 41.2305 48.1738C41.748 46.1719 43.3301 44.5605 45.4395 43.8672C46.4453 43.5352 46.5332 43.1152 45.9473 41.5137C45.6543 40.7129 45.625 40.5371 45.625 39.5117C45.6348 38.5352 45.6641 38.2812 45.9082 37.5684C46.3965 36.1426 47.3633 34.8926 48.6133 34.1113C49.4727 33.5742 50.1367 33.3398 51.4258 33.125C51.8262 33.0566 52.9883 33.1641 53.623 33.3203ZM39.0234 56.9922V63.0469H34.043H29.0625V59.9219V56.7969H29.4043C30.3125 56.7969 32.2949 56.2402 33.623 55.6152C35.4004 54.7754 37.5781 52.9688 38.5742 51.4941C38.7891 51.1914 38.9746 50.9375 38.9941 50.9375C39.0039 50.9375 39.0234 53.6621 39.0234 56.9922ZM42.4414 56.2793C42.6855 56.4453 43.1543 56.709 43.4863 56.875C45.3125 57.8027 47.9394 57.9297 49.873 57.1875L50.3516 57.0117V60.0293V63.0469H45.6641H40.9766V59.0332V55.0098L41.4941 55.498C41.7676 55.7617 42.1973 56.1133 42.4414 56.2793Z" fill="white"/>
<path d="M57.6269 15.1465C54.4433 16.0254 52.5683 19.4922 53.584 22.6269C54.2383 24.6386 55.9277 26.1426 57.9883 26.5625C58.916 26.7578 59.4824 26.7578 60.3613 26.5722C62.3535 26.1523 64.0136 24.707 64.7265 22.7539C64.8828 22.3242 64.9511 21.8847 64.9804 21.0254C65.0195 19.9902 64.9902 19.7949 64.7656 19.0722C64.1699 17.1679 62.5586 15.6347 60.6543 15.1465C59.9414 14.9609 58.3008 14.9707 57.6269 15.1465ZM60.8496 17.4316C61.582 17.7929 62.2851 18.5156 62.6367 19.2773C62.8711 19.7656 62.9004 19.9511 62.9004 20.8594C62.9004 21.7969 62.8711 21.9336 62.6172 22.4511C61.8359 23.9844 60.166 24.873 58.584 24.5801C56.9238 24.2773 55.7226 23.0761 55.4199 21.416C55.332 20.9277 55.332 20.6445 55.4199 20.2051C55.9277 17.6562 58.5644 16.3086 60.8496 17.4316Z" fill="white"/>
<path d="M15.2832 43.1153C14.7265 43.6719 14.9804 44.6583 15.7226 44.8438C16.0742 44.9317 16.4355 44.8145 16.7187 44.5411C16.8945 44.3555 16.9531 44.1993 16.9531 43.8575C16.9531 43.2325 16.5722 42.8321 15.9765 42.8321C15.6543 42.8321 15.5078 42.8907 15.2832 43.1153Z" fill="white"/>
</g>
<defs>
<clipPath id="clip0_92_326">
<rect width="50" height="50" fill="white" transform="translate(15 15)"/>
</clipPath>
</defs>
</svg>
